<?xml version="1.0" standalone="no"?><!DOCTYPE svg PUBLIC "-//W3C//DTD SVG 1.1//EN" "http://www.w3.org/Graphics/SVG/1.1/DTD/svg11.dtd"><svg t="1694261762458" class="icon" viewBox="0 0 1024 1024" version="1.1" xmlns="http://www.w3.org/2000/svg" p-id="23777" xmlns:xlink="http://www.w3.org/1999/xlink" width="200" height="200"><path d="M864.192 245.632c1.088-1.856 2.432-3.904 3.264-5.504 45.312-88.32-6.208-166.656-6.208-166.656l-166.016 166.08-77.44 77.44L500.608 434.304 153.408 87.104c0 0-45.12 71.808 0.256 160.128 24.96 48.448 146.688 170.624 254.656 279.424L343.168 591.808c-81.6-44.288-161.664-23.68-221.952 36.608-75.968 76.096-76.544 198.016-0.448 273.984s200.256 76.48 276.224 0.512c56-56 71.36-136.96 44.928-206.4 14.656-14.272 40.576-39.36 72.192-70.656 31.872 31.104 57.6 56.064 72.384 70.272-26.496 69.504-11.648 150.848 44.352 206.848 76.032 76.032 199.296 75.904 275.392-0.128 76.032-76.032 69.248-192.64-6.72-268.608-60.224-60.288-147.904-74.944-229.376-30.592L603.264 536.896c74.624-76.48 151.744-158.208 204.992-220.608C808.256 316.288 855.744 261.952 864.192 245.632zM341.44 846.912c-45.248 45.248-118.528 45.248-163.776 0.128-45.184-45.248-45.248-118.528 0-163.776C222.784 638.08 296.128 638.08 341.312 683.264 386.624 728.448 386.624 801.664 341.44 846.912zM475.712 495.04c18.688-18.752 49.216-18.752 67.904 0 18.752 18.688 18.752 49.152 0 67.904-18.688 18.688-49.216 18.688-67.904 0C456.96 544.192 456.96 513.728 475.712 495.04zM850.496 683.328c45.248 45.248 45.248 118.592 0 163.776-45.184 45.248-118.528 45.248-163.776 0-45.12-45.184-45.184-118.528 0-163.776C732.032 638.208 805.312 638.208 850.496 683.328z" fill="#5a4e3b" p-id="23778"></path></svg>