<?xml version="1.0" standalone="no"?><!DOCTYPE svg PUBLIC "-//W3C//DTD SVG 1.1//EN" "http://www.w3.org/Graphics/SVG/1.1/DTD/svg11.dtd"><svg t="1694262301071" class="icon" viewBox="0 0 1024 1024" version="1.1" xmlns="http://www.w3.org/2000/svg" p-id="25926" xmlns:xlink="http://www.w3.org/1999/xlink" width="200" height="200"><path d="M874.666667 221.866667a42.666667 42.666667 0 0 1 0 85.333333l-44.074667-0.042667-18.048 544.597334a90.069333 90.069333 0 0 1-83.456 86.656l-6.528 0.256H301.056a90.069333 90.069333 0 0 1-89.557333-80.426667l-0.426667-6.528L193.28 307.157333 149.333333 307.2a42.666667 42.666667 0 1 1 0-85.333333h725.333334zM512 405.333333a42.666667 42.666667 0 0 0-42.666667 42.666667v256a42.666667 42.666667 0 0 0 85.333334 0v-256a42.666667 42.666667 0 0 0-42.666667-42.666667zM682.666667 85.333333a42.666667 42.666667 0 0 1 0 85.333334H341.333333a42.666667 42.666667 0 1 1 0-85.333334h341.333334z" fill="#5a4e3b" p-id="25927"></path></svg>