<?xml version="1.0" standalone="no"?><!DOCTYPE svg PUBLIC "-//W3C//DTD SVG 1.1//EN" "http://www.w3.org/Graphics/SVG/1.1/DTD/svg11.dtd"><svg t="1692794095624" class="icon" viewBox="0 0 1024 1024" version="1.1" xmlns="http://www.w3.org/2000/svg" p-id="22587" xmlns:xlink="http://www.w3.org/1999/xlink" width="200" height="200"><path d="M988.16 92.16L926.72 30.72c-40.96-40.96-102.4-40.96-143.36 0l-143.36 143.36L573.44 102.4 440.32 240.64l56.32 56.32-389.12 394.24c-25.6 25.6-40.96 61.44-40.96 92.16l-20.48 20.48c-46.08 51.2-46.08 128 0 179.2 20.48 25.6 51.2 40.96 81.92 40.96s66.56-15.36 87.04-35.84l20.48-20.48c35.84 0 66.56-15.36 92.16-40.96l389.12-394.24 56.32 56.32 138.24-138.24-66.56-71.68 143.36-143.36c40.96-40.96 40.96-102.4 0-143.36m-716.8 768c-10.24 10.24-25.6 15.36-35.84 15.36-10.24 0-15.36 0-25.6-5.12L153.6 921.6c-5.12 5.12-15.36 10.24-25.6 10.24s-20.48-5.12-25.6-10.24c-15.36-15.36-15.36-35.84 0-51.2l56.32-51.2c-10.24-20.48-5.12-46.08 10.24-61.44l389.12-394.24 102.4 102.4-389.12 394.24z m0 0" fill="#5a4e3b" p-id="22588"></path></svg>