<?xml version="1.0" standalone="no"?><!DOCTYPE svg PUBLIC "-//W3C//DTD SVG 1.1//EN" "http://www.w3.org/Graphics/SVG/1.1/DTD/svg11.dtd"><svg t="1706605273587" class="icon" viewBox="0 0 1024 1024" version="1.1" xmlns="http://www.w3.org/2000/svg" p-id="12566" xmlns:xlink="http://www.w3.org/1999/xlink" width="200" height="200"><path d="M726.281481 538.548148c-39.822222 0-72.059259-32.237037-72.059259-72.059259s32.237037-72.059259 72.059259-72.059259c39.822222 0 72.059259 32.237037 72.05926 72.059259s-32.237037 72.059259-72.05926 72.059259z m-130.844444-183.940741c-39.822222 0-72.059259-32.237037-72.059259-72.059259 0-39.822222 32.237037-72.059259 72.059259-72.059259 39.822222 0 72.059259 32.237037 72.059259 72.059259 0 41.718519-32.237037 72.059259-72.059259 72.059259z m-221.866667 0c-39.822222 0-72.059259-32.237037-72.059259-72.059259 0-39.822222 32.237037-72.059259 72.059259-72.059259 39.822222 0 72.059259 32.237037 72.05926 72.059259 0 41.718519-32.237037 72.059259-72.05926 72.059259z m-130.844444 183.940741c-39.822222 0-72.059259-32.237037-72.059259-72.059259s32.237037-72.059259 72.059259-72.059259 72.059259 32.237037 72.059259 72.059259-32.237037 72.059259-72.059259 72.059259z m639.051852-51.2c-18.962963-202.903704-189.62963-360.296296-398.222222-360.296296-219.97037 0-398.222222 178.251852-398.222223 398.222222s178.251852 398.222222 398.222223 398.222222c36.02963 0 64.474074-28.444444 64.474074-64.474074 0-26.548148-17.066667-49.303704-39.822223-60.681481-15.17037-9.481481-26.548148-26.548148-26.548148-47.407408 0-30.340741 24.651852-56.888889 56.888889-56.888889h161.185185c94.814815-1.896296 172.562963-75.851852 180.148148-168.77037v-9.481481-3.792593c1.896296-7.585185 3.792593-17.066667 1.896297-24.651852z" p-id="12567" fill="#5a4e3b"></path></svg>