<?xml version="1.0" standalone="no"?><!DOCTYPE svg PUBLIC "-//W3C//DTD SVG 1.1//EN" "http://www.w3.org/Graphics/SVG/1.1/DTD/svg11.dtd"><svg t="1706604769370" class="icon" viewBox="0 0 1024 1024" version="1.1" xmlns="http://www.w3.org/2000/svg" p-id="10445" xmlns:xlink="http://www.w3.org/1999/xlink" width="200" height="200"><path d="M512 80c236.8 0 432 195.2 432 432S748.8 944 512 944c-32 0-41.6-9.6-48-28.8l-3.2-6.4-6.4-12.8c-6.4-19.2-19.2-44.8-44.8-73.6l-6.4-6.4c-12.8-12.8-28.8-22.4-44.8-28.8l-9.6-3.2-9.6-3.2-19.2-9.6-54.4-16-19.2-6.4-12.8-3.2-9.6-6.4c-76.8-32-144-86.4-144-227.2C80 275.2 275.2 80 512 80z m0 96C326.4 176 176 326.4 176 512c0 86.4 25.6 115.2 99.2 144l12.8 3.2 12.8 3.2 32 9.6c67.2 19.2 102.4 35.2 134.4 70.4l3.2 3.2c25.6 25.6 44.8 51.2 60.8 80 3.2 3.2 3.2 6.4 6.4 9.6l3.2 9.6h6.4c166.4-19.2 294.4-156.8 300.8-326.4v-9.6c0-182.4-150.4-332.8-336-332.8z m163.2 227.2c-32 0-54.4-22.4-54.4-54.4s22.4-54.4 54.4-54.4 54.4 22.4 54.4 54.4c0 35.2-22.4 54.4-54.4 54.4z m-153.6-70.4c-32 0-54.4-22.4-54.4-54.4S489.6 224 521.6 224s54.4 22.4 54.4 54.4c0 35.2-19.2 54.4-54.4 54.4z m233.6 204.8c-32 0-54.4-22.4-54.4-54.4s22.4-54.4 54.4-54.4 54.4 22.4 54.4 54.4c0 35.2-22.4 54.4-54.4 54.4z m-393.6-150.4c-32 0-54.4-22.4-54.4-54.4s22.4-54.4 54.4-54.4 54.4 22.4 54.4 54.4-22.4 54.4-54.4 54.4zM608 764.8c-44.8 0-80-38.4-80-80s38.4-80 80-80 80 38.4 80 80c-3.2 44.8-35.2 80-80 80z" p-id="10446" fill="#5a4e3b"></path></svg>