<?xml version="1.0" standalone="no"?><!DOCTYPE svg PUBLIC "-//W3C//DTD SVG 1.1//EN" "http://www.w3.org/Graphics/SVG/1.1/DTD/svg11.dtd"><svg t="1694260130766" class="icon" viewBox="0 0 1024 1024" version="1.1" xmlns="http://www.w3.org/2000/svg" p-id="11566" xmlns:xlink="http://www.w3.org/1999/xlink" width="200" height="200"><path d="M903.2 601.7H601.7v298.7c0 33-26.7 59.7-59.7 59.7h-59.7c-33 0-59.8-26.7-59.8-59.7V601.7H121c-31.5 0-57-25.5-57-57v-65.3c0-31.5 25.5-57 57-57h301.5V123.7c0-33 26.8-59.7 59.8-59.7H542c33 0 59.7 26.8 59.7 59.7v298.7h301.5c31.5 0 57 25.5 57 57v65.3c0 31.4-25.5 57-57 57z" fill="#5a4e3b" p-id="11567"></path></svg>