<?xml version="1.0" standalone="no"?><!DOCTYPE svg PUBLIC "-//W3C//DTD SVG 1.1//EN" "http://www.w3.org/Graphics/SVG/1.1/DTD/svg11.dtd"><svg t="1696047819529" class="icon" viewBox="0 0 1024 1024" version="1.1" xmlns="http://www.w3.org/2000/svg" p-id="21573" xmlns:xlink="http://www.w3.org/1999/xlink" width="200" height="200"><path d="M965.973333 552.96c-8.533333 49.493333-23.893333 97.28-46.08 143.36-59.733333 138.24-196.266667 226.986667-348.16 225.28-75.093333 3.413333-150.186667-6.826667-221.866666-32.426667V887.466667l-30.72 75.093333c-5.12 8.533333-11.946667 15.36-20.48 20.48-6.826667 3.413333-13.653333 5.12-20.48 5.12-6.826667 0-13.653333-1.706667-18.773334-5.12-5.12-1.706667-8.533333-3.413333-13.653333-6.826667l-5.12-5.12-155.306667-256c-3.413333-6.826667-6.826667-13.653333-6.826666-20.48 0-5.12 0-10.24 1.706666-17.066666 1.706667-5.12 3.413333-8.533333 6.826667-11.946667l10.24-10.24c3.413333-3.413333 6.826667-5.12 10.24-6.826667 5.12-1.706667 6.826667-3.413333 8.533333-3.413333 1.706667 3.413333 3.413333 3.413333 3.413334 3.413333l271.36-69.973333c11.946667-3.413333 22.186667-3.413333 34.133333-1.706667 6.826667 1.706667 15.36 3.413333 22.186667 5.12 5.12 1.706667 10.24 6.826667 11.946666 11.946667 1.706667 5.12 3.413333 8.533333 5.12 13.653333v13.653334c0 3.413333-1.706667 6.826667-1.706666 10.24 0 1.706667-1.706667 1.706667-1.706667 3.413333l-32.426667 75.093333c51.2 18.773333 104.106667 30.72 158.72 37.546667 42.666667 5.12 85.333333 3.413333 128-3.413333 34.133333-6.826667 66.56-18.773333 97.28-34.133334 25.6-13.653333 49.493333-29.013333 71.68-47.786666 17.066667-15.36 32.426667-32.426667 46.08-51.2 13.653333-18.773333 22.186667-32.426667 25.6-39.253334 6.826667-8.533333 8.533333-15.36 10.24-18.773333zM58.026667 453.973333C69.973333 395.946667 90.453333 341.333333 119.466667 290.133333 191.146667 158.72 332.8 83.626667 481.28 95.573333c68.266667 0 136.533333 13.653333 201.386667 37.546667l32.426666-73.386667c3.413333-6.826667 8.533333-11.946667 15.36-17.066666 5.12-3.413333 10.24-6.826667 15.36-6.826667 1.706667-1.706667 6.826667-1.706667 11.946667-1.706667 5.12 0 8.533333 1.706667 13.653333 3.413334l10.24 5.12c3.413333 1.706667 5.12 3.413333 6.826667 5.12l3.413333 3.413333 150.186667 259.413333c3.413333 6.826667 5.12 13.653333 5.12 20.48 0 5.12 0 10.24-1.706667 17.066667-1.706667 5.12-3.413333 8.533333-6.826666 11.946667-3.413333 3.413333-6.826667 6.826667-10.24 8.533333-3.413333 1.706667-6.826667 5.12-10.24 6.826667l-8.533334 3.413333s-1.706667 1.706667-3.413333 1.706667l-273.066667 63.146666c-15.36 3.413333-30.72 3.413333-44.373333-1.706666-8.533333-1.706667-17.066667-5.12-22.186667-13.653334-3.413333-6.826667-5.12-11.946667-5.12-18.773333 0-5.12 0-10.24 1.706667-17.066667 0-3.413333 1.706667-5.12 3.413333-6.826666l34.133334-73.386667c-51.2-20.48-104.106667-34.133333-158.72-40.96-42.666667-5.12-85.333333-5.12-128 0-34.133333 5.12-66.56 17.066667-97.28 32.426667-25.6 11.946667-51.2 27.306667-73.386667 46.08-17.066667 15.36-34.133333 32.426667-49.493333 51.2-10.24 11.946667-18.773333 25.6-27.306667 37.546666-5.12 5.12-6.826667 10.24-8.533333 15.36z" fill="#5a4e3b" p-id="21574"></path></svg>