<?xml version="1.0" standalone="no"?><!DOCTYPE svg PUBLIC "-//W3C//DTD SVG 1.1//EN" "http://www.w3.org/Graphics/SVG/1.1/DTD/svg11.dtd"><svg t="1702628034817" class="icon" viewBox="0 0 1024 1024" version="1.1" xmlns="http://www.w3.org/2000/svg" p-id="5194" xmlns:xlink="http://www.w3.org/1999/xlink" width="200" height="200"><path d="M461.425778 916.551111v-15.872A391.722667 391.722667 0 0 1 123.335111 562.56H107.448889a50.574222 50.574222 0 0 1 0-101.134222h15.886222A391.751111 391.751111 0 0 1 461.425778 123.320889V107.448889a50.574222 50.574222 0 0 1 101.134222 0v15.886222a391.722667 391.722667 0 0 1 338.104889 338.090667h15.886222a50.574222 50.574222 0 0 1 0 101.134222h-15.872a391.722667 391.722667 0 0 1-338.104889 338.104889v15.886222a50.574222 50.574222 0 0 1-101.134222 0zM208.597333 512c0 167.552 135.850667 303.402667 303.416889 303.402667 167.552 0 303.402667-135.850667 303.402667-303.416889 0-167.552-135.850667-303.388444-303.416889-303.388445C344.533333 208.782222 208.782222 344.519111 208.625778 512z m113.777778 0c0-104.732444 84.906667-189.624889 189.639111-189.624889 104.718222 0 189.624889 84.892444 189.624889 189.624889 0 104.718222-84.906667 189.624889-189.639111 189.624889A189.624889 189.624889 0 0 1 322.403556 512z" fill="#5a4e3b" p-id="5195"></path></svg>